# xmcd
#
# Track frame offsets: 
#        150
#        20755
#        38025
#        54157
#        73020
#        92757
#        114127
#        133917
#        149017
#        173267
#        180172
#
# Disc length: 2522 seconds
#
# Revision: 1
# Processed by: cddbd v1.5.2PL0 Copyright (c) Steve Scherf et al.
# Submitted via: ExactAudioCopy v1.3
#
DISCID=8b09d80b
DTITLE=Various Artist - The End Of The Century Rockers III -Field of Cosmic Chil
DTITLE=d-
DYEAR=1996
DGENRE=visual kei
TTITLE0=Romance for〜 - Acacia
TTITLE1=STYLE - リスク
TTITLE2=Merry-Go-Round - G.O.D
TTITLE3=ORANGE JAM - Destiny
TTITLE4=undeceive - 優しさに狂いそうで
TTITLE5=REAL - NERVOUS ARIES
TTITLE6=Craysis - feeling
TTITLE7=Orphee - Joker
TTITLE8=Romance for〜 - 限りなく不思議な遠さ
TTITLE9=Cosmic Child - Field of Cosmic Child
TTITLE10=Bonus Track
EXTD=
EXTT0=
EXTT1=
EXTT2=
EXTT3=
EXTT4=
EXTT5=
EXTT6=
EXTT7=
EXTT8=
EXTT9=
EXTT10=
PLAYORDER=
